<svg id="Layer_1" data-name="Layer 1" xmlns="http://www.w3.org/2000/svg" viewBox="0 0 380.43 385.67"><defs><style>.cls-1{fill:#89c5cc;}.cls-2{fill:#1f24b1;}.cls-3{fill:#239dac;}</style></defs><g id="Group_3022" data-name="Group 3022"><path id="Path_1114" data-name="Path 1114" class="cls-1" d="M313.42,183.72a1329.67,1329.67,0,0,0-137,1.67c-49.9,5.94-118.85,33.54-116.3,135.3A124.83,124.83,0,0,0,163.31,438c46,7.19,133.83,3.62,150.1,3.43C313.93,394.29,313.42,183.72,313.42,183.72Z" transform="translate(-60.03 -56.78)"/><path id="Path_1109" data-name="Path 1109" class="cls-2" d="M187.07,57.81a1329.86,1329.86,0,0,1,137,1.67c49.9,6,118.84,33.54,116.29,135.3a124.82,124.82,0,0,1-103.2,117.28c-46,7.2-133.83,3.62-150.11,3.43C186.56,268.38,187.07,57.81,187.07,57.81Z" transform="translate(-60.03 -56.78)"/><path id="Intersection_1" data-name="Intersection 1" class="cls-3" d="M187.07,315.5c-.23-21.46-.25-76.89-.2-130.86,60.23-3.81,126.54-.91,126.54-.91s.16,65,.22,130.89c-19.34,1.45-41.61,1.89-62.15,1.89C221.53,316.52,195.26,315.6,187.07,315.5Z" transform="translate(-60.03 -56.78)"/></g></svg>