<?xml version="1.0" encoding="utf-8"?>
<!-- Generator: Adobe Illustrator 24.1.0, SVG Export Plug-In . SVG Version: 6.00 Build 0)  -->
<svg version="1.1" id="Layer_1" xmlns="http://www.w3.org/2000/svg" xmlns:xlink="http://www.w3.org/1999/xlink" x="0px" y="0px"
	 viewBox="0 0 504.15 167.72" style="enable-background:new 0 0 504.15 167.72;" xml:space="preserve">
<style type="text/css">
	.st0{fill:#484848;}
	.st1{fill:#7D7D7D;}
	.st2{fill-rule:evenodd;clip-rule:evenodd;fill:none;}
	.st3{fill:#E53735;}
	.st4{enable-background:new    ;}
	.st5{clip-path:url(#SVGID_2_);}
	.st6{clip-path:url(#SVGID_4_);}
	.st7{clip-path:url(#SVGID_6_);fill:#FFFFFF;}
	.st8{clip-path:url(#SVGID_8_);fill:none;stroke:#7D7D7D;stroke-width:2.3557;stroke-miterlimit:10;}
	.st9{fill:#C78D56;}
	.st10{fill:#7A4B1E;}
	.st11{fill:#2B6A7B;}
	.st12{fill:#94D9F2;}
	.st13{fill:#57AEC6;}
	.st14{fill:none;stroke:#F4F4F4;stroke-width:0.8637;stroke-linecap:square;stroke-miterlimit:10;}
	.st15{fill:#474748;}
	.st16{clip-path:url(#SVGID_12_);fill:#CFCFCE;}
	.st17{clip-path:url(#SVGID_14_);fill:#EAEAEA;}
	.st18{clip-path:url(#SVGID_16_);fill:#EAEAEA;}
	.st19{clip-path:url(#SVGID_18_);fill:#EAEAEA;}
	.st20{clip-path:url(#SVGID_20_);fill:#EAEAEA;}
	.st21{clip-path:url(#SVGID_22_);fill:#EAEAEA;}
	.st22{clip-path:url(#SVGID_24_);fill:#EAEAEA;}
	.st23{clip-path:url(#SVGID_26_);fill:#EAEAEA;}
	.st24{clip-path:url(#SVGID_28_);fill:#EAEAEA;}
	.st25{clip-path:url(#SVGID_30_);fill:#EAEAEA;}
	.st26{clip-path:url(#SVGID_32_);fill:#EAEAEA;}
	.st27{clip-path:url(#SVGID_34_);fill:#EAEAEA;}
	.st28{clip-path:url(#SVGID_36_);fill:#EAEAEA;}
	.st29{fill:#142333;}
	.st30{fill:#EFC063;}
	.st31{fill:#EA7E73;}
	.st32{fill:#F7EEDB;}
	.st33{fill:#71CBD0;}
	.st34{fill:#010101;stroke:#142333;stroke-width:1.6747;stroke-linecap:round;stroke-miterlimit:10;}
	.st35{fill:none;stroke:#142333;stroke-width:1.6747;stroke-linecap:round;stroke-miterlimit:10;}
	.st36{fill:none;stroke:#142333;stroke-width:1.6747;stroke-linecap:round;stroke-miterlimit:10;stroke-dasharray:9.1175,9.1175;}
	.st37{fill:none;stroke:#142333;stroke-width:1.6747;stroke-linecap:round;stroke-miterlimit:10;stroke-dasharray:6.4238,6.4238;}
	.st38{fill:#FAC531;}
	.st39{fill:#010101;stroke:#142333;stroke-width:1.908;stroke-linecap:round;stroke-miterlimit:10;}
	.st40{fill:none;stroke:#142333;stroke-width:1.908;stroke-linecap:round;stroke-miterlimit:10;}
	.st41{fill:none;stroke:#142333;stroke-width:1.908;stroke-linecap:round;stroke-miterlimit:10;stroke-dasharray:10.3877,10.3877;}
	.st42{fill:none;stroke:#142333;stroke-width:1.908;stroke-linecap:round;stroke-miterlimit:10;stroke-dasharray:7.3188,7.3188;}
</style>
<g>
	<g>
		<g>
			<g>
				<path class="st29" d="M192.19,77.32c0.47,0,0.86-0.38,0.86-0.86V48.83c0-0.92-0.75-1.67-1.67-1.67h-53.88
					c-0.92,0-1.67,0.75-1.67,1.67v55.08c0,0.92,0.75,1.67,1.67,1.67h53.88c0.92,0,1.67-0.75,1.67-1.67V80.47
					c0-0.47-0.38-0.86-0.86-0.86s-0.86,0.38-0.86,0.86v23.39h-53.79V53.53h53.79v22.94C191.33,76.94,191.71,77.32,192.19,77.32
					L192.19,77.32z M137.53,51.82v-2.95h53.79v2.95H137.53z"/>
				<path class="st38" d="M144.84,57.56c0-0.47-0.38-0.86-0.86-0.86h-2.43c-1.02,0-1.84,0.83-1.84,1.84V72.3
					c0,1.02,0.83,1.84,1.84,1.84h11.33c1.02,0,1.84-0.83,1.84-1.84V58.55c0-1.02-0.83-1.84-1.84-1.84h-4.91
					c-0.47,0-0.86,0.38-0.86,0.86c0,0.47,0.38,0.86,0.86,0.86h4.05l-4.81,5.68l-4.81-5.68h1.57
					C144.46,58.42,144.84,58.03,144.84,57.56L144.84,57.56z M153.02,59.9v11.05l-4.68-5.53L153.02,59.9z M152.04,72.43h-9.62
					l4.81-5.68L152.04,72.43z M146.11,65.42l-4.68,5.53V59.9L146.11,65.42z"/>
				<path class="st29" d="M170.1,74.14c1.02,0,1.84-0.83,1.84-1.84V58.55c0-1.02-0.83-1.84-1.84-1.84h-11.33
					c-1.02,0-1.84,0.83-1.84,1.84V72.3c0,1.02,0.83,1.84,1.84,1.84H170.1z M159.62,72.43l4.81-5.68l4.81,5.68H159.62z M170.23,59.9
					v11.05l-4.68-5.53L170.23,59.9z M169.24,58.42l-4.81,5.68l-4.81-5.68H169.24z M158.63,59.9l4.68,5.53l-4.68,5.53V59.9z"/>
				<path class="st38" d="M189.15,58.55c0-1.02-0.83-1.84-1.84-1.84h-11.33c-1.02,0-1.84,0.83-1.84,1.84V72.3
					c0,1.02,0.83,1.84,1.84,1.84h11.33c1.02,0,1.84-0.83,1.84-1.84V58.55z M186.45,58.42l-4.81,5.68l-4.81-5.68L186.45,58.42z
					 M175.84,70.95V59.9l4.68,5.53L175.84,70.95z M176.83,72.43l4.81-5.68l4.81,5.68H176.83z M187.43,70.95l-4.68-5.53l4.68-5.53
					V70.95z"/>
				<path class="st29" d="M188.29,83.17h-32.73c-0.47,0-0.86,0.38-0.86,0.86c0,0.47,0.38,0.86,0.86,0.86h32.73
					c0.47,0,0.86-0.38,0.86-0.86C189.15,83.55,188.76,83.17,188.29,83.17z"/>
				<path class="st29" d="M188.29,87.12h-47.26c-0.47,0-0.86,0.38-0.86,0.86c0,0.47,0.38,0.86,0.86,0.86h47.26
					c0.47,0,0.86-0.38,0.86-0.86C189.15,87.51,188.76,87.12,188.29,87.12z"/>
				<path class="st29" d="M188.29,91.07h-47.26c-0.47,0-0.86,0.38-0.86,0.86c0,0.47,0.38,0.86,0.86,0.86h47.26
					c0.47,0,0.86-0.38,0.86-0.86C189.15,91.46,188.76,91.07,188.29,91.07z"/>
				<path class="st29" d="M189.15,95.88c0-0.47-0.38-0.86-0.86-0.86h-47.26c-0.47,0-0.86,0.38-0.86,0.86c0,0.47,0.38,0.86,0.86,0.86
					h47.26C188.76,96.74,189.15,96.35,189.15,95.88z"/>
				<path class="st29" d="M141.03,98.98c-0.47,0-0.86,0.38-0.86,0.86c0,0.47,0.38,0.86,0.86,0.86h17.2c0.47,0,0.86-0.38,0.86-0.86
					c0-0.47-0.38-0.86-0.86-0.86H141.03z"/>
				<path class="st29" d="M144.55,77.27c-0.16-0.38-0.52-0.62-0.93-0.62c0,0,0,0,0,0c-0.41,0-0.77,0.24-0.93,0.62
					c0,0.01-0.01,0.01-0.01,0.02l-2.45,6.43c-0.17,0.44,0.05,0.94,0.49,1.1c0.1,0.04,0.2,0.06,0.3,0.06c0.34,0,0.67-0.21,0.8-0.55
					l0.4-1.05h2.75l0.4,1.05c0.17,0.44,0.66,0.67,1.1,0.5c0.44-0.17,0.67-0.66,0.5-1.1l-2.43-6.43
					C144.55,77.28,144.55,77.28,144.55,77.27L144.55,77.27z M142.88,81.57l0.73-1.92l0.73,1.92H142.88z"/>
				<path class="st29" d="M151.25,79.65c-0.31-0.13-0.65-0.2-1-0.2c-1.43,0-2.6,1.17-2.6,2.6s1.17,2.6,2.6,2.6
					c0.35,0,0.69-0.07,1-0.2c0.15,0.26,0.42,0.43,0.74,0.43c0.47,0,0.86-0.38,0.86-0.86v-3.95c0-0.47-0.38-0.86-0.86-0.86
					C151.68,79.22,151.4,79.39,151.25,79.65L151.25,79.65z M150.25,82.94c-0.49,0-0.89-0.4-0.89-0.89c0-0.49,0.4-0.89,0.89-0.89
					s0.89,0.4,0.89,0.89C151.14,82.54,150.74,82.94,150.25,82.94z"/>
			</g>
		</g>
	</g>
	<g>
		<path class="st29" d="M212.62,105.58c1.48,0,2.68-1.2,2.68-2.68V76.05c0-1.48-1.2-2.68-2.68-2.68h-13.96
			c-1.48,0-2.68,1.2-2.68,2.68v26.84c0,1.48,1.2,2.68,2.68,2.68H212.62z M197.06,78.74h17.18v21.47h-17.18V78.74z M198.67,74.44
			h13.96c0.89,0,1.61,0.72,1.61,1.61v1.61h-17.18v-1.61C197.06,75.16,197.78,74.44,198.67,74.44z M197.06,102.89v-1.61h17.18v1.61
			c0,0.89-0.72,1.61-1.61,1.61h-13.96C197.78,104.5,197.06,103.78,197.06,102.89z"/>
		<path class="st29" d="M203.5,76.59h0.54c0.3,0,0.54-0.24,0.54-0.54c0-0.3-0.24-0.54-0.54-0.54h-0.54c-0.3,0-0.54,0.24-0.54,0.54
			C202.96,76.35,203.2,76.59,203.5,76.59z"/>
		<path class="st29" d="M206.18,76.59h1.61c0.3,0,0.54-0.24,0.54-0.54c0-0.3-0.24-0.54-0.54-0.54h-1.61c-0.3,0-0.54,0.24-0.54,0.54
			C205.64,76.35,205.89,76.59,206.18,76.59z"/>
		<path class="st29" d="M203.5,103.43h4.29c0.3,0,0.54-0.24,0.54-0.54c0-0.3-0.24-0.54-0.54-0.54h-4.29c-0.3,0-0.54,0.24-0.54,0.54
			C202.96,103.19,203.2,103.43,203.5,103.43z"/>
		<path class="st29" d="M199.2,98.06h-0.54c-0.3,0-0.54,0.24-0.54,0.54c0,0.3,0.24,0.54,0.54,0.54h0.54c0.3,0,0.54-0.24,0.54-0.54
			C199.74,98.3,199.5,98.06,199.2,98.06z"/>
		<path class="st29" d="M204.57,98.06h-3.22c-0.3,0-0.54,0.24-0.54,0.54c0,0.3,0.24,0.54,0.54,0.54h3.22c0.3,0,0.54-0.24,0.54-0.54
			C205.11,98.3,204.87,98.06,204.57,98.06z"/>
		<path class="st29" d="M207.26,98.06h-0.54c-0.3,0-0.54,0.24-0.54,0.54c0,0.3,0.24,0.54,0.54,0.54h0.54c0.3,0,0.54-0.24,0.54-0.54
			C207.79,98.3,207.55,98.06,207.26,98.06z"/>
		<path class="st29" d="M212.62,98.06h-3.22c-0.3,0-0.54,0.24-0.54,0.54c0,0.3,0.24,0.54,0.54,0.54h3.22c0.3,0,0.54-0.24,0.54-0.54
			C213.16,98.3,212.92,98.06,212.62,98.06z"/>
		<path class="st29" d="M212.09,79.81H199.2c-0.59,0-1.07,0.48-1.07,1.07v7.52c0,0.59,0.48,1.07,1.07,1.07h12.88
			c0.59,0,1.07-0.48,1.07-1.07v-7.52C213.16,80.29,212.68,79.81,212.09,79.81z M199.2,81.25l5.43,3.39l-5.43,3.39V81.25z
			 M200.64,80.88h10.01l-5,3.12L200.64,80.88z M205.64,85.27l5,3.12h-10.01L205.64,85.27z M206.66,84.64l5.43-3.39v6.78
			L206.66,84.64z"/>
		<path class="st29" d="M204.8,90.87c-0.01-0.01-0.01-0.01-0.02-0.01c-0.2-0.2-0.47-0.31-0.75-0.31h-4.83
			c-0.59,0-1.07,0.48-1.07,1.07v4.29c0,0.59,0.48,1.07,1.07,1.07h4.83c0.59,0,1.07-0.48,1.07-1.07v-4.29c0-0.27-0.11-0.54-0.3-0.74
			C204.81,90.88,204.81,90.87,204.8,90.87z M203.18,91.62l-3.98,3.63v-3.63H203.18z M200.07,95.91l3.97-3.62v3.62H200.07z"/>
		<path class="st29" d="M212.85,90.87c-0.01-0.01-0.01-0.01-0.02-0.01c-0.2-0.2-0.47-0.31-0.75-0.31h-4.83
			c-0.59,0-1.07,0.48-1.07,1.07v4.29c0,0.59,0.48,1.07,1.07,1.07h4.83c0.59,0,1.07-0.48,1.07-1.07v-4.29c0-0.27-0.11-0.54-0.3-0.74
			C212.86,90.88,212.86,90.87,212.85,90.87z M211.23,91.62l-3.98,3.63v-3.63H211.23z M208.12,95.91l3.97-3.62v3.62H208.12z"/>
	</g>
</g>
<g>
	<path class="st29" d="M291.84,99.03c0.02,0,0.04,0,0.05,0c0.32,0,0.6-0.25,0.63-0.58l0.27-3.11c0.02-0.2-0.06-0.39-0.21-0.52
		c-0.15-0.13-0.35-0.19-0.54-0.15l-3.2,0.63c-0.34,0.07-0.56,0.4-0.5,0.74c0.07,0.34,0.4,0.57,0.74,0.5l1.26-0.25l-3.04,2.99
		c0.31,0.28,0.61,0.58,0.89,0.89l3.19-3.14l-0.11,1.31C291.24,98.7,291.49,99,291.84,99.03z"/>
	<path class="st29" d="M288.19,52.56c-0.28,0.32-0.58,0.61-0.89,0.89l3.04,2.99l-1.26-0.25c-0.34-0.07-0.67,0.16-0.74,0.5
		c-0.07,0.34,0.16,0.67,0.5,0.74l3.2,0.63c0.04,0.01,0.08,0.01,0.12,0.01c0.15,0,0.3-0.06,0.42-0.16c0.15-0.13,0.22-0.33,0.21-0.52
		l-0.27-3.11c-0.03-0.35-0.34-0.61-0.68-0.57c-0.35,0.03-0.6,0.34-0.57,0.68l0.11,1.31L288.19,52.56z"/>
	<path class="st29" d="M330.64,58.7c0.04,0,0.08,0,0.12-0.01l3.2-0.63c0.34-0.07,0.56-0.4,0.5-0.74c-0.07-0.34-0.4-0.57-0.74-0.5
		l-1.26,0.25l3.11-3.05c-0.34-0.25-0.66-0.53-0.97-0.82l-3.17,3.12l0.11-1.31c0.03-0.35-0.23-0.65-0.57-0.68
		c-0.35-0.04-0.65,0.23-0.68,0.57l-0.27,3.11c-0.02,0.2,0.06,0.39,0.21,0.52C330.34,58.65,330.49,58.7,330.64,58.7z"/>
	<path class="st29" d="M330.91,98.4c0.02,0,0.04,0,0.05,0c0.35-0.03,0.6-0.34,0.57-0.68l-0.11-1.31l3.17,3.12
		c0.31-0.29,0.63-0.56,0.97-0.82l-3.11-3.05l1.26,0.25c0.34,0.07,0.67-0.16,0.74-0.5c0.07-0.34-0.16-0.67-0.5-0.74l-3.2-0.63
		c-0.19-0.04-0.39,0.02-0.54,0.15c-0.15,0.13-0.22,0.33-0.21,0.52l0.27,3.11C330.31,98.16,330.59,98.4,330.91,98.4z"/>
	<path class="st29" d="M342,35.99c-5.23,0-9.46,4.24-9.46,9.46c0,5.23,4.24,9.46,9.46,9.46c5.23,0,9.46-4.24,9.46-9.46
		C351.46,40.23,347.22,35.99,342,35.99z M348.31,50.69v-0.15c0-2.13-1.12-3.95-2.8-4.93c-0.27,0.35-0.58,0.66-0.94,0.91
		c1.5,0.7,2.49,2.2,2.49,4.01v1.23c0,0.04,0.02,0.08,0.02,0.12c-1.4,1.1-3.16,1.77-5.07,1.77c-1.91,0-3.67-0.66-5.07-1.77
		c0.01-0.04,0.02-0.08,0.02-0.12v-1.23c0-1.82,0.99-3.31,2.48-4.02c-0.36-0.26-0.68-0.56-0.94-0.91c-1.69,0.98-2.8,2.8-2.8,4.93
		v0.15c-1.18-1.42-1.89-3.24-1.89-5.23c0-4.52,3.68-8.2,8.2-8.2c4.52,0,8.2,3.68,8.2,8.2C350.2,47.44,349.49,49.27,348.31,50.69z"/>
	<path class="st29" d="M342,39.78c-1.74,0-3.15,1.41-3.15,3.15c0,1.74,1.41,3.15,3.15,3.15c1.74,0,3.15-1.41,3.15-3.15
		C345.15,41.19,343.74,39.78,342,39.78z M342,44.82c-1.04,0-1.89-0.85-1.89-1.89c0-1.04,0.85-1.89,1.89-1.89s1.89,0.85,1.89,1.89
		C343.89,43.98,343.04,44.82,342,44.82z"/>
	<path class="st29" d="M342,97.81c-5.23,0-9.46,4.24-9.46,9.46s4.24,9.46,9.46,9.46c5.23,0,9.46-4.24,9.46-9.46
		S347.22,97.81,342,97.81z M348.31,112.51v-0.15c0-2.13-1.12-3.95-2.8-4.93c-0.27,0.35-0.58,0.66-0.94,0.91
		c1.5,0.7,2.49,2.2,2.49,4.01v1.23c0,0.04,0.02,0.08,0.02,0.12c-1.4,1.1-3.16,1.77-5.07,1.77c-1.91,0-3.67-0.66-5.07-1.77
		c0.01-0.04,0.02-0.08,0.02-0.12v-1.23c0-1.82,0.99-3.31,2.48-4.02c-0.36-0.26-0.68-0.56-0.94-0.91c-1.69,0.98-2.8,2.8-2.8,4.93
		v0.15c-1.18-1.42-1.89-3.24-1.89-5.23c0-4.52,3.68-8.2,8.2-8.2c4.52,0,8.2,3.68,8.2,8.2C350.2,109.26,349.49,111.09,348.31,112.51z
		"/>
	<path class="st29" d="M342,101.6c-1.74,0-3.15,1.41-3.15,3.15c0,1.74,1.41,3.15,3.15,3.15c1.74,0,3.15-1.41,3.15-3.15
		C345.15,103.01,343.74,101.6,342,101.6z M342,106.65c-1.04,0-1.89-0.85-1.89-1.89c0-1.04,0.85-1.89,1.89-1.89s1.89,0.85,1.89,1.89
		C343.89,105.8,343.04,106.65,342,106.65z"/>
	<path class="st29" d="M280.18,116.74c5.23,0,9.46-4.24,9.46-9.46s-4.24-9.46-9.46-9.46s-9.46,4.24-9.46,9.46
		S274.95,116.74,280.18,116.74z M280.18,99.08c4.52,0,8.2,3.68,8.2,8.2c0,1.99-0.71,3.81-1.89,5.23v-0.15c0-2.13-1.12-3.95-2.8-4.93
		c-0.27,0.35-0.58,0.66-0.94,0.91c1.5,0.7,2.49,2.2,2.49,4.01v1.23c0,0.04,0.02,0.08,0.02,0.12c-1.4,1.1-3.16,1.77-5.07,1.77
		c-1.91,0-3.67-0.66-5.07-1.77c0.01-0.04,0.02-0.08,0.02-0.12v-1.23c0-1.82,0.99-3.31,2.48-4.02c-0.36-0.26-0.68-0.56-0.94-0.91
		c-1.69,0.98-2.8,2.8-2.8,4.93v0.15c-1.18-1.42-1.89-3.24-1.89-5.23C271.98,102.75,275.66,99.08,280.18,99.08z"/>
	<path class="st29" d="M280.18,107.91c1.74,0,3.15-1.41,3.15-3.15c0-1.74-1.41-3.15-3.15-3.15c-1.74,0-3.15,1.41-3.15,3.15
		C277.02,106.49,278.44,107.91,280.18,107.91z M280.18,102.86c1.04,0,1.89,0.85,1.89,1.89c0,1.04-0.85,1.89-1.89,1.89
		c-1.04,0-1.89-0.85-1.89-1.89C278.28,103.71,279.13,102.86,280.18,102.86z"/>
	<path class="st29" d="M294.67,94.66h32.84c1.03,0,1.88-0.84,1.88-1.88V59.95c0-1.03-0.84-1.88-1.88-1.88h-32.84
		c-1.03,0-1.88,0.84-1.88,1.88v32.84C292.79,93.82,293.64,94.66,294.67,94.66z M294.06,59.95c0-0.29,0.32-0.61,0.61-0.61h32.82h0.02
		c0.29,0,0.61,0.32,0.61,0.61v3.17h-34.06V59.95z M294.06,64.38h34.06v28.4c0,0.29-0.32,0.61-0.61,0.61h-32.84
		c-0.29,0-0.61-0.32-0.61-0.61V64.38z"/>
	<path class="st29" d="M280.18,54.92c5.23,0,9.46-4.24,9.46-9.46c0-5.23-4.24-9.46-9.46-9.46s-9.46,4.24-9.46,9.46
		C270.71,50.68,274.95,54.92,280.18,54.92z M280.18,37.25c4.52,0,8.2,3.68,8.2,8.2c0,1.99-0.71,3.81-1.89,5.23v-0.15
		c0-2.13-1.12-3.95-2.8-4.93c-0.27,0.35-0.58,0.66-0.94,0.91c1.5,0.7,2.49,2.2,2.49,4.01v1.23c0,0.04,0.02,0.08,0.02,0.12
		c-1.4,1.1-3.16,1.77-5.07,1.77c-1.91,0-3.67-0.66-5.07-1.77c0.01-0.04,0.02-0.08,0.02-0.12v-1.23c0-1.82,0.99-3.31,2.48-4.02
		c-0.36-0.26-0.68-0.56-0.94-0.91c-1.69,0.98-2.8,2.8-2.8,4.93v0.15c-1.18-1.42-1.89-3.24-1.89-5.23
		C271.98,40.93,275.66,37.25,280.18,37.25z"/>
	<path class="st29" d="M311.09,68.17h13.88c0.35,0,0.63-0.28,0.63-0.63s-0.28-0.63-0.63-0.63h-13.88c-0.35,0-0.63,0.28-0.63,0.63
		S310.74,68.17,311.09,68.17z"/>
	<path class="st38" d="M311.09,70.69h13.88c0.35,0,0.63-0.28,0.63-0.63s-0.28-0.63-0.63-0.63h-13.88c-0.35,0-0.63,0.28-0.63,0.63
		S310.74,70.69,311.09,70.69z"/>
	<path class="st29" d="M311.09,73.21h13.88c0.35,0,0.63-0.28,0.63-0.63s-0.28-0.63-0.63-0.63h-13.88c-0.35,0-0.63,0.28-0.63,0.63
		S310.74,73.21,311.09,73.21z"/>
	<path class="st38" d="M311.09,75.74h13.88c0.35,0,0.63-0.28,0.63-0.63s-0.28-0.63-0.63-0.63h-13.88c-0.35,0-0.63,0.28-0.63,0.63
		S310.74,75.74,311.09,75.74z"/>
	<path class="st38" d="M311.09,78.26h13.88c0.35,0,0.63-0.28,0.63-0.63S325.31,77,324.97,77h-13.88c-0.35,0-0.63,0.28-0.63,0.63
		S310.74,78.26,311.09,78.26z"/>
	<path class="st29" d="M297.84,78.26h8.83c0.69,0,1.26-0.57,1.26-1.26v-8.83c0-0.69-0.57-1.26-1.26-1.26h-8.83
		c-0.69,0-1.26,0.57-1.26,1.26V77C296.58,77.69,297.15,78.26,297.84,78.26z M297.84,68.17h8.83V77h-8.83V68.17z"/>
	<path class="st38" d="M297.21,80.78h13.88c0.35,0,0.63-0.28,0.63-0.63s-0.28-0.63-0.63-0.63h-13.88c-0.35,0-0.63,0.28-0.63,0.63
		S296.86,80.78,297.21,80.78z"/>
	<path class="st29" d="M297.21,83.31h13.88c0.35,0,0.63-0.28,0.63-0.63s-0.28-0.63-0.63-0.63h-13.88c-0.35,0-0.63,0.28-0.63,0.63
		S296.86,83.31,297.21,83.31z"/>
	<path class="st38" d="M297.21,85.83h13.88c0.35,0,0.63-0.28,0.63-0.63s-0.28-0.63-0.63-0.63h-13.88c-0.35,0-0.63,0.28-0.63,0.63
		S296.86,85.83,297.21,85.83z"/>
	<path class="st29" d="M297.21,88.35h13.88c0.35,0,0.63-0.28,0.63-0.63s-0.28-0.63-0.63-0.63h-13.88c-0.35,0-0.63,0.28-0.63,0.63
		S296.86,88.35,297.21,88.35z"/>
	<path class="st29" d="M297.21,90.87h13.88c0.35,0,0.63-0.28,0.63-0.63s-0.28-0.63-0.63-0.63h-13.88c-0.35,0-0.63,0.28-0.63,0.63
		S296.86,90.87,297.21,90.87z"/>
	<path class="st29" d="M324.33,79.52h-8.83c-0.69,0-1.26,0.57-1.26,1.26v8.83c0,0.69,0.57,1.26,1.26,1.26h8.83
		c0.69,0,1.26-0.57,1.26-1.26v-8.83C325.6,80.09,325.03,79.52,324.33,79.52z M324.33,89.61h-8.83v-8.83h8.83V89.61z"/>
	<circle class="st29" cx="326.23" cy="61.23" r="0.63"/>
	<circle class="st29" cx="323.7" cy="61.23" r="0.63"/>
	<path class="st29" d="M308.56,60.6h-12.62c-0.35,0-0.63,0.28-0.63,0.63s0.28,0.63,0.63,0.63h12.62c0.35,0,0.63-0.28,0.63-0.63
		S308.91,60.6,308.56,60.6z"/>
	<path class="st29" d="M280.18,46.09c1.74,0,3.15-1.41,3.15-3.15c0-1.74-1.41-3.15-3.15-3.15c-1.74,0-3.15,1.41-3.15,3.15
		C277.02,44.67,278.44,46.09,280.18,46.09z M280.18,41.04c1.04,0,1.89,0.85,1.89,1.89c0,1.04-0.85,1.89-1.89,1.89
		c-1.04,0-1.89-0.85-1.89-1.89C278.28,41.89,279.13,41.04,280.18,41.04z"/>
</g>
<g>
	<line class="st39" x1="224.91" y1="76.37" x2="261.11" y2="76.37"/>
	<line class="st40" x1="253.8" y1="69.06" x2="261.11" y2="76.37"/>
	<line class="st40" x1="253.8" y1="83.68" x2="261.11" y2="76.37"/>
</g>
<g>
	<line class="st39" x1="84.38" y1="76.37" x2="120.59" y2="76.37"/>
	<line class="st40" x1="113.28" y1="69.06" x2="120.59" y2="76.37"/>
	<line class="st40" x1="113.28" y1="83.68" x2="120.59" y2="76.37"/>
</g>
<g>
	<line class="st39" x1="367.05" y1="80.15" x2="403.25" y2="80.15"/>
	<line class="st40" x1="395.94" y1="72.84" x2="403.25" y2="80.15"/>
	<line class="st40" x1="395.94" y1="87.46" x2="403.25" y2="80.15"/>
</g>
<g>
	<g>
		<g>
			<line class="st40" x1="165.55" y1="34.81" x2="165.55" y2="29.56"/>
			<polyline class="st40" points="165.55,21.95 165.55,16.7 170.8,16.7 			"/>
			<line class="st41" x1="181.19" y1="16.7" x2="300.65" y2="16.7"/>
			<polyline class="st40" points="305.84,16.7 311.09,16.7 311.09,21.95 			"/>
			<line class="st42" x1="311.09" y1="29.27" x2="311.09" y2="40.25"/>
			<line class="st40" x1="311.09" y1="43.91" x2="311.09" y2="49.15"/>
		</g>
	</g>
	<line class="st40" x1="172.86" y1="27.5" x2="165.55" y2="34.81"/>
	<line class="st40" x1="158.24" y1="27.5" x2="165.55" y2="34.81"/>
</g>
<g>
	<g>
		<path d="M150.56,129.19h0.95l-2.26,6.68h-0.95l-1.73-5.51l-1.76,5.51h-0.94l-2.25-6.68h0.98l1.76,5.7l1.76-5.7h0.92l1.76,5.7
			L150.56,129.19z"/>
		<path d="M153.25,128.97c0.1,0.11,0.16,0.25,0.16,0.41s-0.05,0.3-0.16,0.41c-0.11,0.11-0.24,0.16-0.4,0.16s-0.29-0.05-0.4-0.16
			c-0.11-0.11-0.16-0.25-0.16-0.41s0.05-0.3,0.16-0.41c0.1-0.11,0.24-0.16,0.4-0.16S153.15,128.86,153.25,128.97z M152.42,130.82
			h0.89v5.05h-0.89V130.82z"/>
		<path d="M156.62,131.08c0.31-0.19,0.67-0.29,1.09-0.29v0.86c-0.51-0.02-0.93,0.11-1.25,0.4c-0.32,0.29-0.5,0.67-0.54,1.15v2.66
			h-0.89v-5.05h0.89v1.09C156.08,131.54,156.32,131.27,156.62,131.08z"/>
		<path d="M162.47,131.48c0.4,0.46,0.6,1.1,0.6,1.92c0,0.13,0,0.22-0.01,0.29h-3.99c0.07,0.45,0.26,0.81,0.57,1.08
			c0.31,0.27,0.69,0.4,1.14,0.4c0.3,0,0.58-0.05,0.83-0.16c0.26-0.11,0.48-0.26,0.67-0.46l0.49,0.51c-0.25,0.27-0.55,0.47-0.9,0.62
			s-0.74,0.22-1.16,0.22c-0.5,0-0.94-0.11-1.32-0.32c-0.39-0.21-0.68-0.51-0.9-0.9s-0.32-0.83-0.32-1.33s0.11-0.94,0.32-1.32
			s0.51-0.69,0.89-0.91c0.38-0.22,0.82-0.33,1.31-0.33C161.48,130.79,162.07,131.02,162.47,131.48z M162.27,133
			c-0.03-0.46-0.18-0.82-0.46-1.08c-0.28-0.26-0.65-0.4-1.11-0.4c-0.45,0-0.82,0.13-1.11,0.4c-0.3,0.27-0.47,0.63-0.53,1.08H162.27z
			"/>
		<path d="M165.57,129.73c-0.15,0.14-0.23,0.34-0.23,0.6v0.66h1.39v0.68h-1.39v4.2h-0.89v-4.2h-0.66v-0.68h0.66v-0.54
			c0-0.37,0.08-0.68,0.23-0.94c0.16-0.26,0.36-0.45,0.62-0.58c0.25-0.13,0.53-0.2,0.82-0.2c0.28,0,0.57,0.08,0.88,0.23l-0.21,0.73
			c-0.23-0.11-0.45-0.16-0.65-0.16C165.92,129.52,165.72,129.59,165.57,129.73z"/>
		<path d="M169.14,131.08c0.31-0.19,0.67-0.29,1.09-0.29v0.86c-0.51-0.02-0.93,0.11-1.25,0.4c-0.32,0.29-0.5,0.67-0.54,1.15v2.66
			h-0.89v-5.05h0.89v1.09C168.6,131.54,168.84,131.27,169.14,131.08z"/>
		<path d="M174.27,135.86v-0.71c-0.38,0.5-0.96,0.74-1.76,0.74c-0.35,0-0.66-0.07-0.92-0.2c-0.26-0.13-0.47-0.32-0.61-0.55
			c-0.14-0.24-0.21-0.5-0.21-0.79c0-0.45,0.17-0.81,0.5-1.07c0.33-0.26,0.8-0.4,1.4-0.41h1.6v-0.24c0-0.36-0.11-0.63-0.33-0.83
			c-0.22-0.19-0.54-0.29-0.96-0.29c-0.51,0-1.03,0.18-1.56,0.54l-0.37-0.61c0.36-0.24,0.7-0.41,1.01-0.51
			c0.31-0.1,0.68-0.16,1.1-0.16c0.63,0,1.12,0.15,1.46,0.46s0.52,0.74,0.52,1.29l0.01,3.32H174.27z M173.74,134.87
			c0.29-0.2,0.46-0.47,0.52-0.8v-0.5h-1.48c-0.4,0-0.7,0.06-0.89,0.18c-0.19,0.12-0.29,0.31-0.29,0.57c0,0.26,0.1,0.47,0.3,0.62
			c0.2,0.15,0.46,0.23,0.79,0.23C173.1,135.17,173.45,135.07,173.74,134.87z"/>
		<path d="M184.61,131.31c0.33,0.35,0.5,0.83,0.5,1.43v3.12h-0.9v-2.88c0-0.43-0.12-0.76-0.35-1c-0.23-0.24-0.55-0.36-0.96-0.36
			c-0.48,0.01-0.85,0.18-1.13,0.51c-0.27,0.32-0.41,0.74-0.41,1.25v2.49h-0.9v-2.88c0-0.43-0.11-0.76-0.34-1
			c-0.23-0.24-0.55-0.36-0.96-0.36c-0.48,0.01-0.85,0.18-1.13,0.51c-0.28,0.32-0.41,0.74-0.41,1.25v2.49h-0.89v-5.05h0.89v1.06
			c0.33-0.71,0.96-1.08,1.88-1.09c0.46,0,0.85,0.11,1.16,0.33s0.52,0.53,0.62,0.93c0.31-0.83,0.97-1.26,1.96-1.27
			C183.83,130.79,184.28,130.96,184.61,131.31z"/>
		<path d="M187.53,128.97c0.1,0.11,0.16,0.25,0.16,0.41s-0.05,0.3-0.16,0.41c-0.11,0.11-0.24,0.16-0.4,0.16s-0.29-0.05-0.4-0.16
			c-0.11-0.11-0.16-0.25-0.16-0.41s0.05-0.3,0.16-0.41c0.1-0.11,0.24-0.16,0.4-0.16S187.42,128.86,187.53,128.97z M186.69,130.82
			h0.89v5.05h-0.89V130.82z"/>
		<path d="M193.5,131.31c0.34,0.35,0.51,0.83,0.51,1.44v3.12h-0.89v-2.88c0-0.43-0.12-0.76-0.36-1s-0.57-0.36-0.99-0.36
			c-0.45,0.01-0.82,0.15-1.1,0.43s-0.44,0.65-0.48,1.1v2.7h-0.89v-5.05h0.89v1.07c0.34-0.72,0.98-1.08,1.92-1.1
			C192.7,130.79,193.17,130.96,193.5,131.31z"/>
		<path d="M200.06,130.82v4.53c0,0.48-0.11,0.91-0.32,1.27c-0.21,0.36-0.51,0.64-0.9,0.83c-0.39,0.19-0.84,0.29-1.35,0.29
			c-0.74,0-1.44-0.24-2.08-0.71l0.39-0.65c0.25,0.2,0.51,0.35,0.77,0.45c0.27,0.1,0.56,0.15,0.88,0.15c0.52,0,0.94-0.15,1.25-0.44
			c0.31-0.29,0.47-0.68,0.47-1.17v-0.71c-0.18,0.3-0.42,0.54-0.73,0.71c-0.3,0.17-0.66,0.25-1.05,0.25c-0.45,0-0.85-0.1-1.2-0.31
			c-0.35-0.21-0.62-0.49-0.81-0.86s-0.29-0.79-0.29-1.27c0-0.47,0.1-0.89,0.29-1.25s0.46-0.65,0.81-0.85c0.35-0.2,0.75-0.3,1.2-0.3
			c0.4,0,0.75,0.08,1.05,0.25s0.54,0.4,0.72,0.71v-0.93H200.06z M198.39,134.7c0.24-0.15,0.43-0.35,0.57-0.61
			c0.14-0.26,0.21-0.55,0.21-0.87c0-0.33-0.07-0.62-0.21-0.88c-0.14-0.26-0.33-0.46-0.57-0.61c-0.24-0.15-0.52-0.22-0.83-0.22
			s-0.59,0.07-0.83,0.22c-0.25,0.15-0.44,0.35-0.58,0.61c-0.14,0.26-0.21,0.55-0.21,0.88c0.01,0.5,0.16,0.9,0.46,1.22
			c0.3,0.32,0.69,0.48,1.16,0.48C197.87,134.92,198.15,134.85,198.39,134.7z"/>
		<path d="M209.03,136.01l-1.09-1.07c-0.3,0.31-0.62,0.55-0.97,0.72c-0.35,0.17-0.7,0.25-1.07,0.25c-0.38,0-0.72-0.08-1.03-0.24
			s-0.56-0.38-0.74-0.66c-0.18-0.28-0.27-0.6-0.27-0.95c0-0.43,0.13-0.79,0.4-1.07s0.63-0.55,1.09-0.8c-0.23-0.3-0.4-0.57-0.51-0.83
			s-0.16-0.5-0.16-0.74c0-0.43,0.16-0.79,0.47-1.06c0.31-0.27,0.71-0.41,1.21-0.41c0.48,0,0.87,0.13,1.16,0.38
			c0.3,0.25,0.45,0.58,0.45,0.98c0,0.29-0.07,0.54-0.22,0.76c-0.15,0.22-0.34,0.41-0.56,0.56c-0.23,0.16-0.51,0.32-0.85,0.5
			c0.32,0.37,0.83,0.9,1.54,1.6c0.25-0.39,0.47-0.81,0.64-1.26l0.59,0.44c-0.2,0.47-0.44,0.91-0.72,1.32l1.12,1.1L209.03,136.01z
			 M207.45,134.45c-0.75-0.74-1.33-1.34-1.73-1.8c-0.36,0.2-0.63,0.4-0.83,0.61c-0.19,0.21-0.29,0.46-0.29,0.73
			c0,0.36,0.13,0.65,0.38,0.88c0.25,0.23,0.57,0.34,0.94,0.34C206.45,135.22,206.96,134.96,207.45,134.45z M205.94,131.88
			c0.43-0.22,0.75-0.43,0.97-0.63s0.33-0.44,0.33-0.73c0-0.24-0.08-0.44-0.24-0.58c-0.16-0.15-0.37-0.22-0.64-0.22
			c-0.29,0-0.53,0.08-0.7,0.25c-0.17,0.17-0.26,0.38-0.26,0.63C205.4,130.96,205.58,131.38,205.94,131.88z"/>
		<path d="M153.11,141.23c0.45,0.39,0.68,0.95,0.68,1.66c0,0.74-0.23,1.32-0.69,1.73s-1.1,0.62-1.93,0.62h-1.66v2.08h-0.92v-6.68
			h2.58C152.01,140.64,152.66,140.83,153.11,141.23z M152.46,144.03c0.3-0.25,0.46-0.62,0.46-1.11c0-0.48-0.15-0.84-0.46-1.08
			c-0.31-0.25-0.74-0.37-1.32-0.37l-1.62,0.01v2.93h1.62C151.71,144.4,152.15,144.28,152.46,144.03z"/>
		<path d="M156.51,142.53c0.31-0.19,0.67-0.29,1.09-0.29v0.86c-0.51-0.02-0.93,0.11-1.25,0.4c-0.32,0.29-0.5,0.67-0.54,1.15v2.66
			h-0.89v-5.05h0.89v1.09C155.97,142.99,156.21,142.72,156.51,142.53z"/>
		<path d="M162,142.56c0.39,0.22,0.7,0.52,0.92,0.9c0.22,0.38,0.33,0.83,0.33,1.32s-0.11,0.94-0.33,1.33
			c-0.22,0.39-0.53,0.69-0.92,0.91c-0.39,0.22-0.84,0.32-1.34,0.32c-0.51,0-0.96-0.11-1.35-0.32c-0.39-0.22-0.7-0.52-0.92-0.9
			s-0.33-0.83-0.33-1.33c0-0.5,0.11-0.94,0.33-1.32s0.52-0.69,0.92-0.9c0.39-0.22,0.84-0.32,1.35-0.32
			C161.17,142.24,161.61,142.35,162,142.56z M159.78,143.24c-0.26,0.15-0.46,0.36-0.6,0.63c-0.14,0.27-0.21,0.58-0.21,0.92
			c0,0.35,0.07,0.66,0.21,0.93c0.14,0.27,0.34,0.49,0.6,0.63c0.26,0.15,0.55,0.22,0.88,0.22c0.32,0,0.62-0.08,0.87-0.22
			s0.46-0.36,0.6-0.63c0.14-0.27,0.21-0.58,0.21-0.93c0-0.34-0.07-0.65-0.21-0.92c-0.14-0.27-0.34-0.48-0.6-0.63
			c-0.26-0.15-0.55-0.23-0.87-0.23C160.33,143.01,160.04,143.09,159.78,143.24z"/>
		<path d="M167.2,146.98c-0.39,0.25-0.78,0.37-1.18,0.37s-0.72-0.12-0.97-0.36s-0.37-0.6-0.37-1.08v-2.79h-0.72v-0.68h0.72v-1.35
			h0.9v1.35h1.54v0.68h-1.54v2.63c0,0.28,0.05,0.48,0.15,0.6c0.1,0.12,0.25,0.18,0.46,0.18c0.24,0,0.5-0.08,0.78-0.24L167.2,146.98z
			"/>
		<path d="M171.71,142.56c0.39,0.22,0.7,0.52,0.92,0.9c0.22,0.38,0.33,0.83,0.33,1.32s-0.11,0.94-0.33,1.33
			c-0.22,0.39-0.53,0.69-0.92,0.91c-0.39,0.22-0.84,0.32-1.34,0.32c-0.51,0-0.96-0.11-1.35-0.32c-0.39-0.22-0.7-0.52-0.92-0.9
			s-0.33-0.83-0.33-1.33c0-0.5,0.11-0.94,0.33-1.32s0.52-0.69,0.92-0.9c0.39-0.22,0.84-0.32,1.35-0.32
			C170.88,142.24,171.32,142.35,171.71,142.56z M169.49,143.24c-0.26,0.15-0.46,0.36-0.6,0.63c-0.14,0.27-0.21,0.58-0.21,0.92
			c0,0.35,0.07,0.66,0.21,0.93c0.14,0.27,0.34,0.49,0.6,0.63c0.26,0.15,0.55,0.22,0.88,0.22c0.32,0,0.62-0.08,0.87-0.22
			s0.46-0.36,0.6-0.63c0.14-0.27,0.21-0.58,0.21-0.93c0-0.34-0.07-0.65-0.21-0.92c-0.14-0.27-0.34-0.48-0.6-0.63
			c-0.26-0.15-0.55-0.23-0.87-0.23C170.04,143.01,169.75,143.09,169.49,143.24z"/>
		<path d="M176.91,146.98c-0.39,0.25-0.78,0.37-1.18,0.37s-0.72-0.12-0.97-0.36s-0.37-0.6-0.37-1.08v-2.79h-0.72v-0.68h0.72v-1.35
			h0.9v1.35h1.54v0.68h-1.54v2.63c0,0.28,0.05,0.48,0.15,0.6c0.1,0.12,0.25,0.18,0.46,0.18c0.24,0,0.5-0.08,0.78-0.24L176.91,146.98
			z"/>
		<path d="M179.12,148.91c-0.26,0.2-0.57,0.3-0.93,0.3c-0.22,0-0.41-0.03-0.59-0.09c-0.18-0.06-0.35-0.16-0.51-0.3l0.38-0.7
			c0.22,0.16,0.45,0.24,0.68,0.24c0.38,0,0.67-0.22,0.86-0.65l0.19-0.45l-2.09-4.99h0.94l1.6,4.04l1.52-4.04h0.91l-2.31,5.76
			C179.59,148.42,179.38,148.71,179.12,148.91z"/>
		<path d="M186.96,142.56c0.37,0.22,0.65,0.52,0.86,0.91c0.2,0.39,0.3,0.83,0.3,1.34c0,0.5-0.1,0.94-0.3,1.32s-0.48,0.68-0.85,0.9
			c-0.37,0.21-0.78,0.32-1.25,0.32c-0.43,0-0.8-0.09-1.13-0.27s-0.58-0.43-0.76-0.76v2.85h-0.89v-6.9h0.89v1
			c0.18-0.33,0.44-0.58,0.76-0.76c0.32-0.18,0.69-0.27,1.11-0.27C186.17,142.24,186.59,142.35,186.96,142.56z M186.4,146.34
			c0.26-0.15,0.46-0.37,0.6-0.64c0.14-0.27,0.21-0.58,0.21-0.93c0-0.34-0.07-0.64-0.22-0.92c-0.15-0.27-0.35-0.49-0.6-0.64
			c-0.25-0.15-0.54-0.23-0.87-0.23s-0.62,0.08-0.87,0.23c-0.26,0.15-0.46,0.37-0.61,0.64s-0.22,0.58-0.22,0.92
			c0,0.35,0.07,0.66,0.22,0.93s0.35,0.48,0.61,0.63c0.26,0.15,0.55,0.23,0.87,0.23S186.14,146.49,186.4,146.34z"/>
		<path d="M190.19,140.42c0.1,0.11,0.16,0.25,0.16,0.41s-0.05,0.3-0.16,0.41c-0.11,0.11-0.24,0.16-0.4,0.16s-0.29-0.05-0.4-0.16
			c-0.11-0.11-0.16-0.25-0.16-0.41s0.05-0.3,0.16-0.41c0.1-0.11,0.24-0.16,0.4-0.16S190.09,140.31,190.19,140.42z M189.36,142.27
			h0.89v5.05h-0.89V142.27z"/>
		<path d="M196.17,142.76c0.34,0.35,0.51,0.83,0.51,1.44v3.12h-0.89v-2.88c0-0.43-0.12-0.76-0.36-1s-0.57-0.36-0.99-0.36
			c-0.45,0.01-0.82,0.15-1.1,0.43s-0.44,0.65-0.48,1.1v2.7h-0.89v-5.05h0.89v1.07c0.34-0.72,0.98-1.08,1.92-1.1
			C195.37,142.24,195.83,142.41,196.17,142.76z"/>
		<path d="M202.72,142.27v4.53c0,0.48-0.11,0.91-0.32,1.27c-0.21,0.36-0.51,0.64-0.9,0.83c-0.39,0.19-0.84,0.29-1.35,0.29
			c-0.74,0-1.44-0.24-2.08-0.71l0.39-0.65c0.25,0.2,0.51,0.35,0.77,0.45c0.27,0.1,0.56,0.15,0.88,0.15c0.52,0,0.94-0.15,1.25-0.44
			c0.31-0.29,0.47-0.68,0.47-1.17v-0.71c-0.18,0.3-0.42,0.54-0.73,0.71c-0.3,0.17-0.66,0.25-1.05,0.25c-0.45,0-0.85-0.1-1.2-0.31
			c-0.35-0.21-0.62-0.49-0.81-0.86s-0.29-0.79-0.29-1.27c0-0.47,0.1-0.89,0.29-1.25s0.46-0.65,0.81-0.85c0.35-0.2,0.75-0.3,1.2-0.3
			c0.4,0,0.75,0.08,1.05,0.25s0.54,0.4,0.72,0.71v-0.93H202.72z M201.05,146.15c0.24-0.15,0.43-0.35,0.57-0.61
			c0.14-0.26,0.21-0.55,0.21-0.87c0-0.33-0.07-0.62-0.21-0.88c-0.14-0.26-0.33-0.46-0.57-0.61c-0.24-0.15-0.52-0.22-0.83-0.22
			s-0.59,0.07-0.83,0.22c-0.25,0.15-0.44,0.35-0.58,0.61c-0.14,0.26-0.21,0.55-0.21,0.88c0.01,0.5,0.16,0.9,0.46,1.22
			c0.3,0.32,0.69,0.48,1.16,0.48C200.54,146.37,200.81,146.3,201.05,146.15z"/>
	</g>
</g>
<g>
	<g>
		<path d="M16.62,129.63c0.39,0.3,0.59,0.7,0.59,1.23c0,0.38-0.11,0.71-0.32,0.97c-0.22,0.26-0.51,0.44-0.89,0.53
			c0.46,0.07,0.83,0.26,1.09,0.56c0.26,0.3,0.4,0.68,0.4,1.13c0,0.57-0.21,1.02-0.64,1.34c-0.43,0.32-1.02,0.48-1.78,0.48h-2.9
			v-6.68h2.85C15.7,129.19,16.23,129.33,16.62,129.63z M15.93,131.76c0.23-0.17,0.34-0.42,0.34-0.75c0-0.32-0.11-0.56-0.34-0.74
			c-0.23-0.17-0.55-0.25-0.96-0.25h-1.89v1.99h1.89C15.38,132.02,15.7,131.93,15.93,131.76z M16.13,134.74
			c0.28-0.19,0.42-0.47,0.42-0.82c0-0.34-0.14-0.6-0.42-0.79c-0.28-0.19-0.67-0.29-1.16-0.29h-1.89v2.17h1.89
			C15.46,135.03,15.85,134.94,16.13,134.74z"/>
		<path d="M20.46,131.08c0.31-0.19,0.67-0.29,1.09-0.29v0.86c-0.51-0.02-0.93,0.11-1.25,0.4c-0.32,0.29-0.5,0.67-0.54,1.15v2.66
			h-0.89v-5.05h0.89v1.09C19.92,131.54,20.16,131.27,20.46,131.08z"/>
		<path d="M25.6,135.86v-0.71c-0.38,0.5-0.96,0.74-1.76,0.74c-0.35,0-0.66-0.07-0.92-0.2c-0.26-0.13-0.47-0.32-0.61-0.55
			c-0.14-0.24-0.21-0.5-0.21-0.79c0-0.45,0.17-0.81,0.5-1.07c0.33-0.26,0.8-0.4,1.4-0.41h1.6v-0.24c0-0.36-0.11-0.63-0.33-0.83
			c-0.22-0.19-0.54-0.29-0.96-0.29c-0.51,0-1.03,0.18-1.56,0.54l-0.37-0.61c0.36-0.24,0.7-0.41,1.01-0.51
			c0.31-0.1,0.68-0.16,1.1-0.16c0.63,0,1.12,0.15,1.46,0.46s0.52,0.74,0.52,1.29l0.01,3.32H25.6z M25.07,134.87
			c0.29-0.2,0.46-0.47,0.52-0.8v-0.5h-1.48c-0.4,0-0.7,0.06-0.89,0.18c-0.19,0.12-0.29,0.31-0.29,0.57c0,0.26,0.1,0.47,0.3,0.62
			c0.2,0.15,0.46,0.23,0.79,0.23C24.43,135.17,24.78,135.07,25.07,134.87z"/>
		<path d="M28.89,128.97c0.1,0.11,0.16,0.25,0.16,0.41s-0.05,0.3-0.16,0.41c-0.11,0.11-0.24,0.16-0.4,0.16s-0.29-0.05-0.4-0.16
			c-0.11-0.11-0.16-0.25-0.16-0.41s0.05-0.3,0.16-0.41c0.1-0.11,0.24-0.16,0.4-0.16S28.79,128.86,28.89,128.97z M28.06,130.82h0.89
			v5.05h-0.89V130.82z"/>
		<path d="M34.87,131.31c0.34,0.35,0.51,0.83,0.51,1.44v3.12h-0.89v-2.88c0-0.43-0.12-0.76-0.36-1s-0.57-0.36-0.99-0.36
			c-0.45,0.01-0.82,0.15-1.1,0.43s-0.44,0.65-0.48,1.1v2.7h-0.89v-5.05h0.89v1.07c0.34-0.72,0.98-1.08,1.92-1.1
			C34.07,130.79,34.53,130.96,34.87,131.31z"/>
		<path d="M39.02,131.63c-0.25-0.08-0.49-0.12-0.72-0.12c-0.27,0-0.48,0.05-0.64,0.15s-0.24,0.25-0.24,0.45
			c0,0.2,0.09,0.36,0.27,0.46c0.18,0.1,0.46,0.21,0.83,0.32c0.35,0.1,0.64,0.2,0.86,0.3c0.22,0.1,0.41,0.25,0.57,0.45
			c0.16,0.2,0.23,0.46,0.23,0.78c0,0.48-0.18,0.84-0.54,1.09s-0.81,0.37-1.34,0.37c-0.38,0-0.74-0.06-1.09-0.18
			c-0.35-0.12-0.65-0.29-0.89-0.52l0.33-0.65c0.21,0.19,0.47,0.34,0.78,0.46s0.61,0.17,0.9,0.17c0.29,0,0.53-0.05,0.71-0.16
			c0.18-0.11,0.27-0.27,0.27-0.5c0-0.23-0.09-0.4-0.28-0.52s-0.47-0.23-0.85-0.34c-0.34-0.09-0.61-0.19-0.83-0.29
			s-0.39-0.24-0.54-0.43s-0.22-0.44-0.22-0.74c0-0.47,0.17-0.82,0.52-1.06s0.77-0.35,1.29-0.35c0.3,0,0.61,0.04,0.9,0.13
			s0.55,0.2,0.77,0.35l-0.32,0.68C39.5,131.81,39.27,131.71,39.02,131.63z"/>
		<path d="M44.06,135.53c-0.39,0.25-0.78,0.37-1.18,0.37s-0.72-0.12-0.97-0.36s-0.37-0.6-0.37-1.08v-2.79h-0.72v-0.68h0.72v-1.35
			h0.9v1.35h1.54v0.68h-1.54v2.63c0,0.28,0.05,0.48,0.15,0.6c0.1,0.12,0.25,0.18,0.46,0.18c0.24,0,0.5-0.08,0.78-0.24L44.06,135.53z
			"/>
		<path d="M46.73,131.08c0.31-0.19,0.67-0.29,1.09-0.29v0.86c-0.51-0.02-0.93,0.11-1.25,0.4c-0.32,0.29-0.5,0.67-0.54,1.15v2.66
			h-0.89v-5.05h0.89v1.09C46.19,131.54,46.42,131.27,46.73,131.08z"/>
		<path d="M52.22,131.11c0.39,0.22,0.7,0.52,0.92,0.9c0.22,0.38,0.33,0.83,0.33,1.32s-0.11,0.94-0.33,1.33
			c-0.22,0.39-0.53,0.69-0.92,0.91c-0.39,0.22-0.84,0.32-1.34,0.32c-0.51,0-0.96-0.11-1.35-0.32c-0.39-0.22-0.7-0.52-0.92-0.9
			s-0.33-0.83-0.33-1.33c0-0.5,0.11-0.94,0.33-1.32s0.52-0.69,0.92-0.9c0.39-0.22,0.84-0.32,1.35-0.32
			C51.38,130.79,51.83,130.9,52.22,131.11z M50,131.79c-0.26,0.15-0.46,0.36-0.6,0.63c-0.14,0.27-0.21,0.58-0.21,0.92
			c0,0.35,0.07,0.66,0.21,0.93c0.14,0.27,0.34,0.49,0.6,0.63c0.26,0.15,0.55,0.22,0.88,0.22c0.32,0,0.62-0.08,0.87-0.22
			s0.46-0.36,0.6-0.63c0.14-0.27,0.21-0.58,0.21-0.93c0-0.34-0.07-0.65-0.21-0.92c-0.14-0.27-0.34-0.48-0.6-0.63
			c-0.26-0.15-0.55-0.23-0.87-0.23C50.55,131.56,50.25,131.64,50,131.79z"/>
		<path d="M62.58,131.31c0.33,0.35,0.5,0.83,0.5,1.43v3.12h-0.9v-2.88c0-0.43-0.12-0.76-0.35-1c-0.23-0.24-0.55-0.36-0.96-0.36
			c-0.48,0.01-0.85,0.18-1.13,0.51c-0.27,0.32-0.41,0.74-0.41,1.25v2.49h-0.9v-2.88c0-0.43-0.11-0.76-0.34-1
			c-0.23-0.24-0.55-0.36-0.96-0.36c-0.48,0.01-0.85,0.18-1.13,0.51c-0.28,0.32-0.41,0.74-0.41,1.25v2.49H54.7v-5.05h0.89v1.06
			c0.33-0.71,0.96-1.08,1.88-1.09c0.46,0,0.85,0.11,1.16,0.33s0.52,0.53,0.62,0.93c0.31-0.83,0.97-1.26,1.96-1.27
			C61.8,130.79,62.25,130.96,62.58,131.31z"/>
		<path d="M65.5,128.97c0.1,0.11,0.16,0.25,0.16,0.41s-0.05,0.3-0.16,0.41c-0.11,0.11-0.24,0.16-0.4,0.16s-0.29-0.05-0.4-0.16
			c-0.11-0.11-0.16-0.25-0.16-0.41s0.05-0.3,0.16-0.41c0.1-0.11,0.24-0.16,0.4-0.16S65.39,128.86,65.5,128.97z M64.66,130.82h0.89
			v5.05h-0.89V130.82z"/>
		<path d="M71.47,131.31c0.34,0.35,0.51,0.83,0.51,1.44v3.12h-0.89v-2.88c0-0.43-0.12-0.76-0.36-1s-0.57-0.36-0.99-0.36
			c-0.45,0.01-0.82,0.15-1.1,0.43s-0.44,0.65-0.48,1.1v2.7h-0.89v-5.05h0.89v1.07c0.34-0.72,0.98-1.08,1.92-1.1
			C70.67,130.79,71.14,130.96,71.47,131.31z"/>
		<path d="M78.03,130.82v4.53c0,0.48-0.11,0.91-0.32,1.27c-0.21,0.36-0.51,0.64-0.9,0.83c-0.39,0.19-0.84,0.29-1.35,0.29
			c-0.74,0-1.44-0.24-2.08-0.71l0.39-0.65c0.25,0.2,0.51,0.35,0.77,0.45c0.27,0.1,0.56,0.15,0.88,0.15c0.52,0,0.94-0.15,1.25-0.44
			c0.31-0.29,0.47-0.68,0.47-1.17v-0.71c-0.18,0.3-0.42,0.54-0.73,0.71c-0.3,0.17-0.66,0.25-1.05,0.25c-0.45,0-0.85-0.1-1.2-0.31
			c-0.35-0.21-0.62-0.49-0.81-0.86s-0.29-0.79-0.29-1.27c0-0.47,0.1-0.89,0.29-1.25s0.46-0.65,0.81-0.85c0.35-0.2,0.75-0.3,1.2-0.3
			c0.4,0,0.75,0.08,1.05,0.25s0.54,0.4,0.72,0.71v-0.93H78.03z M76.36,134.7c0.24-0.15,0.43-0.35,0.57-0.61
			c0.14-0.26,0.21-0.55,0.21-0.87c0-0.33-0.07-0.62-0.21-0.88c-0.14-0.26-0.33-0.46-0.57-0.61c-0.24-0.15-0.52-0.22-0.83-0.22
			s-0.59,0.07-0.83,0.22c-0.25,0.15-0.44,0.35-0.58,0.61c-0.14,0.26-0.21,0.55-0.21,0.88c0.01,0.5,0.16,0.9,0.46,1.22
			c0.3,0.32,0.69,0.48,1.16,0.48C75.84,134.92,76.12,134.85,76.36,134.7z"/>
	</g>
</g>
<g>
	<g>
		<path d="M294.09,129.19h5.22v0.84h-2.16v5.84h-0.92v-5.84h-2.15V129.19z"/>
		<path d="M304.07,131.48c0.4,0.46,0.6,1.1,0.6,1.92c0,0.13,0,0.22-0.01,0.29h-3.99c0.07,0.45,0.26,0.81,0.57,1.08
			c0.31,0.27,0.69,0.4,1.14,0.4c0.3,0,0.58-0.05,0.83-0.16c0.26-0.11,0.48-0.26,0.67-0.46l0.49,0.51c-0.25,0.27-0.55,0.47-0.9,0.62
			s-0.74,0.22-1.16,0.22c-0.5,0-0.94-0.11-1.32-0.32c-0.39-0.21-0.68-0.51-0.9-0.9s-0.32-0.83-0.32-1.33s0.11-0.94,0.32-1.32
			s0.51-0.69,0.89-0.91c0.38-0.22,0.82-0.33,1.31-0.33C303.08,130.79,303.67,131.02,304.07,131.48z M303.87,133
			c-0.03-0.46-0.18-0.82-0.46-1.08c-0.28-0.26-0.65-0.4-1.11-0.4c-0.45,0-0.82,0.13-1.11,0.4c-0.3,0.27-0.47,0.63-0.53,1.08H303.87z
			"/>
		<path d="M307.95,131.63c-0.25-0.08-0.49-0.12-0.72-0.12c-0.27,0-0.48,0.05-0.64,0.15s-0.24,0.25-0.24,0.45
			c0,0.2,0.09,0.36,0.27,0.46c0.18,0.1,0.46,0.21,0.83,0.32c0.35,0.1,0.64,0.2,0.86,0.3c0.22,0.1,0.41,0.25,0.57,0.45
			c0.16,0.2,0.23,0.46,0.23,0.78c0,0.48-0.18,0.84-0.54,1.09s-0.81,0.37-1.34,0.37c-0.38,0-0.74-0.06-1.09-0.18
			c-0.35-0.12-0.65-0.29-0.89-0.52l0.33-0.65c0.21,0.19,0.47,0.34,0.78,0.46s0.61,0.17,0.9,0.17c0.29,0,0.53-0.05,0.71-0.16
			c0.18-0.11,0.27-0.27,0.27-0.5c0-0.23-0.09-0.4-0.28-0.52s-0.47-0.23-0.85-0.34c-0.34-0.09-0.61-0.19-0.83-0.29
			s-0.39-0.24-0.54-0.43s-0.22-0.44-0.22-0.74c0-0.47,0.17-0.82,0.52-1.06s0.77-0.35,1.29-0.35c0.3,0,0.61,0.04,0.9,0.13
			s0.55,0.2,0.77,0.35l-0.32,0.68C308.43,131.81,308.2,131.71,307.95,131.63z"/>
		<path d="M312.98,135.53c-0.39,0.25-0.78,0.37-1.18,0.37s-0.72-0.12-0.97-0.36s-0.37-0.6-0.37-1.08v-2.79h-0.72v-0.68h0.72v-1.35
			h0.9v1.35h1.54v0.68h-1.54v2.63c0,0.28,0.05,0.48,0.15,0.6c0.1,0.12,0.25,0.18,0.46,0.18c0.24,0,0.5-0.08,0.78-0.24L312.98,135.53
			z"/>
		<path d="M314.89,128.97c0.1,0.11,0.16,0.25,0.16,0.41s-0.05,0.3-0.16,0.41c-0.11,0.11-0.24,0.16-0.4,0.16s-0.29-0.05-0.4-0.16
			c-0.11-0.11-0.16-0.25-0.16-0.41s0.05-0.3,0.16-0.41c0.1-0.11,0.24-0.16,0.4-0.16S314.79,128.86,314.89,128.97z M314.06,130.82
			h0.89v5.05h-0.89V130.82z"/>
		<path d="M320.87,131.31c0.34,0.35,0.51,0.83,0.51,1.44v3.12h-0.89v-2.88c0-0.43-0.12-0.76-0.36-1s-0.57-0.36-0.99-0.36
			c-0.45,0.01-0.82,0.15-1.1,0.43s-0.44,0.65-0.48,1.1v2.7h-0.89v-5.05h0.89v1.07c0.34-0.72,0.98-1.08,1.92-1.1
			C320.07,130.79,320.53,130.96,320.87,131.31z"/>
		<path d="M327.42,130.82v4.53c0,0.48-0.11,0.91-0.32,1.27c-0.21,0.36-0.51,0.64-0.9,0.83c-0.39,0.19-0.84,0.29-1.35,0.29
			c-0.74,0-1.44-0.24-2.08-0.71l0.39-0.65c0.25,0.2,0.51,0.35,0.77,0.45c0.27,0.1,0.56,0.15,0.88,0.15c0.52,0,0.94-0.15,1.25-0.44
			c0.31-0.29,0.47-0.68,0.47-1.17v-0.71c-0.18,0.3-0.42,0.54-0.73,0.71c-0.3,0.17-0.66,0.25-1.05,0.25c-0.45,0-0.85-0.1-1.2-0.31
			c-0.35-0.21-0.62-0.49-0.81-0.86s-0.29-0.79-0.29-1.27c0-0.47,0.1-0.89,0.29-1.25s0.46-0.65,0.81-0.85c0.35-0.2,0.75-0.3,1.2-0.3
			c0.4,0,0.75,0.08,1.05,0.25s0.54,0.4,0.72,0.71v-0.93H327.42z M325.75,134.7c0.24-0.15,0.43-0.35,0.57-0.61
			c0.14-0.26,0.21-0.55,0.21-0.87c0-0.33-0.07-0.62-0.21-0.88c-0.14-0.26-0.33-0.46-0.57-0.61c-0.24-0.15-0.52-0.22-0.83-0.22
			s-0.59,0.07-0.83,0.22c-0.25,0.15-0.44,0.35-0.58,0.61c-0.14,0.26-0.21,0.55-0.21,0.88c0.01,0.5,0.16,0.9,0.46,1.22
			c0.3,0.32,0.69,0.48,1.16,0.48C325.24,134.92,325.51,134.85,325.75,134.7z"/>
	</g>
</g>
<g>
	<path class="st29" d="M417.98,47.16v58.42h68.82V47.16H417.98z M485.33,48.73v6.51h-65.67v-6.51H485.33z M419.66,104V56.82h65.67
		V104C485.33,104,419.66,104,419.66,104z"/>
	<rect x="470.09" y="51.25" class="st29" width="1.58" height="1.58"/>
	<rect x="478.08" y="51.25" class="st29" width="1.58" height="1.58"/>
	<rect x="474.09" y="51.25" class="st29" width="1.58" height="1.58"/>
	<rect x="424.7" y="51.25" class="st29" width="40.45" height="1.58"/>
	<rect x="446.87" y="65.54" class="st29" width="30.37" height="1.58"/>
	<rect x="446.87" y="71.85" class="st29" width="26.16" height="1.58"/>
	<path class="st29" d="M426.8,76.79h15.13V61.66H426.8V76.79z M428.38,63.23h11.98v11.98h-11.98V63.23z"/>
	<rect x="446.87" y="86.03" class="st29" width="11.45" height="1.58"/>
	<rect x="446.87" y="92.34" class="st29" width="11.45" height="1.58"/>
	<path class="st29" d="M426.8,97.27h15.13V82.14H426.8V97.27z M428.38,83.72h11.98V95.7h-11.98V83.72z"/>
	<polygon class="st29" points="468.94,92.23 466.42,89.71 465.36,90.87 468.94,94.54 477.34,86.14 476.19,84.98 	"/>
	<path class="st38" d="M471.35,78.36c-6.09,0-11.14,4.94-11.14,11.14c0,6.09,4.94,11.14,11.14,11.14c6.09,0,11.14-4.94,11.14-11.14
		C482.49,83.3,477.45,78.36,471.35,78.36z M471.35,99.06c-5.25,0-9.56-4.31-9.56-9.56c0-5.25,4.31-9.56,9.56-9.56
		s9.56,4.31,9.56,9.56C480.91,94.75,476.61,99.06,471.35,99.06z"/>
</g>
<g>
	<g>
		<path d="M423.69,129.19h0.92v2.98h3.82v-2.98h0.93v6.68h-0.93v-2.87h-3.82v2.87h-0.92V129.19z"/>
		<path d="M432.01,128.97c0.1,0.11,0.16,0.25,0.16,0.41s-0.05,0.3-0.16,0.41c-0.11,0.11-0.24,0.16-0.4,0.16s-0.29-0.05-0.4-0.16
			c-0.11-0.11-0.16-0.25-0.16-0.41s0.05-0.3,0.16-0.41c0.1-0.11,0.24-0.16,0.4-0.16S431.9,128.86,432.01,128.97z M431.17,130.82
			h0.89v5.05h-0.89V130.82z"/>
		<path d="M438.25,130.82v4.53c0,0.48-0.11,0.91-0.32,1.27c-0.21,0.36-0.51,0.64-0.9,0.83c-0.39,0.19-0.84,0.29-1.35,0.29
			c-0.74,0-1.44-0.24-2.08-0.71l0.39-0.65c0.25,0.2,0.51,0.35,0.77,0.45c0.27,0.1,0.56,0.15,0.88,0.15c0.52,0,0.94-0.15,1.25-0.44
			c0.31-0.29,0.47-0.68,0.47-1.17v-0.71c-0.18,0.3-0.42,0.54-0.73,0.71c-0.3,0.17-0.66,0.25-1.05,0.25c-0.45,0-0.85-0.1-1.2-0.31
			c-0.35-0.21-0.62-0.49-0.81-0.86s-0.29-0.79-0.29-1.27c0-0.47,0.1-0.89,0.29-1.25s0.46-0.65,0.81-0.85c0.35-0.2,0.75-0.3,1.2-0.3
			c0.4,0,0.75,0.08,1.05,0.25s0.54,0.4,0.72,0.71v-0.93H438.25z M436.58,134.7c0.24-0.15,0.43-0.35,0.57-0.61
			c0.14-0.26,0.21-0.55,0.21-0.87c0-0.33-0.07-0.62-0.21-0.88c-0.14-0.26-0.33-0.46-0.57-0.61c-0.24-0.15-0.52-0.22-0.83-0.22
			s-0.59,0.07-0.83,0.22c-0.25,0.15-0.44,0.35-0.58,0.61c-0.14,0.26-0.21,0.55-0.21,0.88c0.01,0.5,0.16,0.9,0.46,1.22
			c0.3,0.32,0.69,0.48,1.16,0.48C436.06,134.92,436.34,134.85,436.58,134.7z"/>
		<path d="M444.13,131.31c0.34,0.35,0.51,0.83,0.51,1.44v3.12h-0.89v-2.88c0-0.43-0.12-0.76-0.36-1s-0.57-0.36-0.99-0.36
			c-0.49,0.01-0.88,0.17-1.16,0.5c-0.29,0.32-0.43,0.74-0.43,1.26v2.48h-0.89v-7.08h0.89v3.12c0.34-0.73,0.98-1.1,1.93-1.12
			C443.33,130.79,443.79,130.96,444.13,131.31z"/>
		<path d="M448.8,129.19h4.35l-0.01,0.83h-3.42v2.19h3.08v0.83h-3.08v2.82h-0.92V129.19z"/>
		<path d="M454.97,128.97c0.1,0.11,0.16,0.25,0.16,0.41s-0.05,0.3-0.16,0.41c-0.11,0.11-0.24,0.16-0.4,0.16s-0.29-0.05-0.4-0.16
			c-0.11-0.11-0.16-0.25-0.16-0.41s0.05-0.3,0.16-0.41c0.1-0.11,0.24-0.16,0.4-0.16S454.86,128.86,454.97,128.97z M454.13,130.82
			h0.89v5.05h-0.89V130.82z"/>
		<path d="M461.45,128.79v7.08h-0.89v-1c-0.19,0.34-0.45,0.6-0.77,0.78c-0.32,0.18-0.69,0.27-1.12,0.27c-0.48,0-0.9-0.11-1.26-0.33
			c-0.37-0.22-0.65-0.52-0.85-0.92c-0.2-0.39-0.31-0.84-0.31-1.34c0-0.5,0.1-0.94,0.31-1.32c0.2-0.38,0.49-0.68,0.85-0.9
			c0.37-0.22,0.78-0.32,1.25-0.32c0.43,0,0.81,0.09,1.13,0.27c0.32,0.18,0.58,0.44,0.76,0.77v-3.03H461.45z M459.74,134.92
			c0.26-0.15,0.46-0.37,0.61-0.64s0.22-0.58,0.22-0.92c0-0.35-0.07-0.66-0.22-0.94s-0.35-0.49-0.61-0.64
			c-0.26-0.15-0.55-0.23-0.88-0.23s-0.62,0.08-0.88,0.23c-0.26,0.16-0.46,0.37-0.61,0.64s-0.22,0.58-0.22,0.93
			c0,0.34,0.07,0.65,0.22,0.92s0.35,0.49,0.61,0.64c0.26,0.15,0.55,0.23,0.88,0.23S459.48,135.07,459.74,134.92z"/>
		<path d="M467.03,131.48c0.4,0.46,0.6,1.1,0.6,1.92c0,0.13,0,0.22-0.01,0.29h-3.99c0.07,0.45,0.26,0.81,0.57,1.08
			c0.31,0.27,0.69,0.4,1.14,0.4c0.3,0,0.58-0.05,0.83-0.16c0.26-0.11,0.48-0.26,0.67-0.46l0.49,0.51c-0.25,0.27-0.55,0.47-0.9,0.62
			s-0.74,0.22-1.16,0.22c-0.5,0-0.94-0.11-1.32-0.32c-0.39-0.21-0.68-0.51-0.9-0.9s-0.32-0.83-0.32-1.33s0.11-0.94,0.32-1.32
			s0.51-0.69,0.89-0.91c0.38-0.22,0.82-0.33,1.31-0.33C466.04,130.79,466.63,131.02,467.03,131.48z M466.83,133
			c-0.03-0.46-0.18-0.82-0.46-1.08c-0.28-0.26-0.65-0.4-1.11-0.4c-0.45,0-0.82,0.13-1.11,0.4c-0.3,0.27-0.47,0.63-0.53,1.08H466.83z
			"/>
		<path d="M468.89,128.79h0.89v7.08h-0.89V128.79z"/>
		<path d="M472.4,128.97c0.1,0.11,0.16,0.25,0.16,0.41s-0.05,0.3-0.16,0.41c-0.11,0.11-0.24,0.16-0.4,0.16s-0.29-0.05-0.4-0.16
			c-0.11-0.11-0.16-0.25-0.16-0.41s0.05-0.3,0.16-0.41c0.1-0.11,0.24-0.16,0.4-0.16S472.29,128.86,472.4,128.97z M471.56,130.82
			h0.89v5.05h-0.89V130.82z"/>
		<path d="M476.89,135.53c-0.39,0.25-0.78,0.37-1.18,0.37s-0.72-0.12-0.97-0.36s-0.37-0.6-0.37-1.08v-2.79h-0.72v-0.68h0.72v-1.35
			h0.9v1.35h1.54v0.68h-1.54v2.63c0,0.28,0.05,0.48,0.15,0.6c0.1,0.12,0.25,0.18,0.46,0.18c0.24,0,0.5-0.08,0.78-0.24L476.89,135.53
			z"/>
		<path d="M479.1,137.46c-0.26,0.2-0.57,0.3-0.93,0.3c-0.22,0-0.41-0.03-0.59-0.09c-0.18-0.06-0.35-0.16-0.51-0.3l0.38-0.7
			c0.22,0.16,0.45,0.24,0.68,0.24c0.38,0,0.67-0.22,0.86-0.65l0.19-0.45l-2.09-4.99h0.94l1.6,4.04l1.52-4.04h0.91l-2.31,5.76
			C479.57,136.97,479.36,137.26,479.1,137.46z"/>
		<path d="M434.61,141.23c0.45,0.39,0.68,0.95,0.68,1.66c0,0.74-0.23,1.32-0.69,1.73s-1.1,0.62-1.93,0.62h-1.66v2.08h-0.92v-6.68
			h2.58C433.51,140.64,434.15,140.83,434.61,141.23z M433.95,144.03c0.3-0.25,0.46-0.62,0.46-1.11c0-0.48-0.15-0.84-0.46-1.08
			c-0.31-0.25-0.74-0.37-1.32-0.37l-1.62,0.01v2.93h1.62C433.21,144.4,433.65,144.28,433.95,144.03z"/>
		<path d="M438.01,142.53c0.31-0.19,0.67-0.29,1.09-0.29v0.86c-0.51-0.02-0.93,0.11-1.25,0.4c-0.32,0.29-0.5,0.67-0.54,1.15v2.66
			h-0.89v-5.05h0.89v1.09C437.47,142.99,437.7,142.72,438.01,142.53z"/>
		<path d="M443.5,142.56c0.39,0.22,0.7,0.52,0.92,0.9c0.22,0.38,0.33,0.83,0.33,1.32s-0.11,0.94-0.33,1.33
			c-0.22,0.39-0.53,0.69-0.92,0.91c-0.39,0.22-0.84,0.32-1.34,0.32c-0.51,0-0.96-0.11-1.35-0.32c-0.39-0.22-0.7-0.52-0.92-0.9
			s-0.33-0.83-0.33-1.33c0-0.5,0.11-0.94,0.33-1.32s0.52-0.69,0.92-0.9c0.39-0.22,0.84-0.32,1.35-0.32
			C442.66,142.24,443.11,142.35,443.5,142.56z M441.28,143.24c-0.26,0.15-0.46,0.36-0.6,0.63c-0.14,0.27-0.21,0.58-0.21,0.92
			c0,0.35,0.07,0.66,0.21,0.93c0.14,0.27,0.34,0.49,0.6,0.63c0.26,0.15,0.55,0.22,0.88,0.22c0.32,0,0.62-0.08,0.87-0.22
			s0.46-0.36,0.6-0.63c0.14-0.27,0.21-0.58,0.21-0.93c0-0.34-0.07-0.65-0.21-0.92c-0.14-0.27-0.34-0.48-0.6-0.63
			c-0.26-0.15-0.55-0.23-0.87-0.23C441.83,143.01,441.53,143.09,441.28,143.24z"/>
		<path d="M448.69,146.98c-0.39,0.25-0.78,0.37-1.18,0.37s-0.72-0.12-0.97-0.36s-0.37-0.6-0.37-1.08v-2.79h-0.72v-0.68h0.72v-1.35
			h0.9v1.35h1.54v0.68h-1.54v2.63c0,0.28,0.05,0.48,0.15,0.6c0.1,0.12,0.25,0.18,0.46,0.18c0.24,0,0.5-0.08,0.78-0.24L448.69,146.98
			z"/>
		<path d="M453.21,142.56c0.39,0.22,0.7,0.52,0.92,0.9c0.22,0.38,0.33,0.83,0.33,1.32s-0.11,0.94-0.33,1.33
			c-0.22,0.39-0.53,0.69-0.92,0.91c-0.39,0.22-0.84,0.32-1.34,0.32c-0.51,0-0.96-0.11-1.35-0.32c-0.39-0.22-0.7-0.52-0.92-0.9
			s-0.33-0.83-0.33-1.33c0-0.5,0.11-0.94,0.33-1.32s0.52-0.69,0.92-0.9c0.39-0.22,0.84-0.32,1.35-0.32
			C452.37,142.24,452.82,142.35,453.21,142.56z M450.99,143.24c-0.26,0.15-0.46,0.36-0.6,0.63c-0.14,0.27-0.21,0.58-0.21,0.92
			c0,0.35,0.07,0.66,0.21,0.93c0.14,0.27,0.34,0.49,0.6,0.63c0.26,0.15,0.55,0.22,0.88,0.22c0.32,0,0.62-0.08,0.87-0.22
			s0.46-0.36,0.6-0.63c0.14-0.27,0.21-0.58,0.21-0.93c0-0.34-0.07-0.65-0.21-0.92c-0.14-0.27-0.34-0.48-0.6-0.63
			c-0.26-0.15-0.55-0.23-0.87-0.23C451.54,143.01,451.24,143.09,450.99,143.24z"/>
		<path d="M458.4,146.98c-0.39,0.25-0.78,0.37-1.18,0.37s-0.72-0.12-0.97-0.36s-0.37-0.6-0.37-1.08v-2.79h-0.72v-0.68h0.72v-1.35
			h0.9v1.35h1.54v0.68h-1.54v2.63c0,0.28,0.05,0.48,0.15,0.6c0.1,0.12,0.25,0.18,0.46,0.18c0.24,0,0.5-0.08,0.78-0.24L458.4,146.98z
			"/>
		<path d="M460.61,148.91c-0.26,0.2-0.57,0.3-0.93,0.3c-0.22,0-0.41-0.03-0.59-0.09c-0.18-0.06-0.35-0.16-0.51-0.3l0.38-0.7
			c0.22,0.16,0.45,0.24,0.68,0.24c0.38,0,0.67-0.22,0.86-0.65l0.19-0.45l-2.09-4.99h0.94l1.6,4.04l1.52-4.04h0.91l-2.31,5.76
			C461.09,148.42,460.88,148.71,460.61,148.91z"/>
		<path d="M468.45,142.56c0.37,0.22,0.65,0.52,0.86,0.91c0.2,0.39,0.3,0.83,0.3,1.34c0,0.5-0.1,0.94-0.3,1.32s-0.48,0.68-0.85,0.9
			c-0.37,0.21-0.78,0.32-1.25,0.32c-0.43,0-0.8-0.09-1.13-0.27s-0.58-0.43-0.76-0.76v2.85h-0.89v-6.9h0.89v1
			c0.18-0.33,0.44-0.58,0.76-0.76c0.32-0.18,0.69-0.27,1.11-0.27C467.66,142.24,468.08,142.35,468.45,142.56z M467.89,146.34
			c0.26-0.15,0.46-0.37,0.6-0.64c0.14-0.27,0.21-0.58,0.21-0.93c0-0.34-0.07-0.64-0.22-0.92c-0.15-0.27-0.35-0.49-0.6-0.64
			c-0.25-0.15-0.54-0.23-0.87-0.23s-0.62,0.08-0.87,0.23c-0.26,0.15-0.46,0.37-0.61,0.64s-0.22,0.58-0.22,0.92
			c0,0.35,0.07,0.66,0.22,0.93s0.35,0.48,0.61,0.63c0.26,0.15,0.55,0.23,0.87,0.23S467.63,146.49,467.89,146.34z"/>
		<path d="M474.65,142.93c0.4,0.46,0.6,1.1,0.6,1.92c0,0.13,0,0.22-0.01,0.29h-3.99c0.07,0.45,0.26,0.81,0.57,1.08
			c0.31,0.27,0.69,0.4,1.14,0.4c0.3,0,0.58-0.05,0.83-0.16c0.26-0.11,0.48-0.26,0.67-0.46l0.49,0.51c-0.25,0.27-0.55,0.47-0.9,0.62
			s-0.74,0.22-1.16,0.22c-0.5,0-0.94-0.11-1.32-0.32c-0.39-0.21-0.68-0.51-0.9-0.9s-0.32-0.83-0.32-1.33s0.11-0.94,0.32-1.32
			s0.51-0.69,0.89-0.91c0.38-0.22,0.82-0.33,1.31-0.33C473.66,142.24,474.25,142.47,474.65,142.93z M474.45,144.45
			c-0.03-0.46-0.18-0.82-0.46-1.08c-0.28-0.26-0.65-0.4-1.11-0.4c-0.45,0-0.82,0.13-1.11,0.4c-0.3,0.27-0.47,0.63-0.53,1.08H474.45z
			"/>
	</g>
</g>
<g>
	<g>
		<g>
			<path class="st38" d="M73.37,50.65c-1.4-2.43-3.99-3.92-6.8-3.92c-4.33,0-7.84,3.51-7.85,7.84c0,2.8,1.49,5.39,3.92,6.8v2.04
				c0,0.54,0.44,0.98,0.98,0.98s0.98-0.44,0.98-0.98v-2.63c0-0.38-0.22-0.72-0.56-0.88c-2.94-1.39-4.19-4.9-2.8-7.84
				s4.9-4.19,7.84-2.8c2.94,1.39,4.19,4.9,2.8,7.84c-0.58,1.23-1.57,2.22-2.8,2.8c-0.34,0.16-0.56,0.51-0.56,0.88v2.63
				c0,0.54,0.44,0.98,0.98,0.98s0.98-0.44,0.98-0.98v-2.04C74.25,59.2,75.53,54.4,73.37,50.65z"/>
		</g>
	</g>
	<g>
		<g>
			<path class="st29" d="M69.51,66.34h-5.88c-0.54,0-0.98,0.44-0.98,0.98s0.44,0.98,0.98,0.98h5.88c0.54,0,0.98-0.44,0.98-0.98
				S70.06,66.34,69.51,66.34z"/>
		</g>
	</g>
	<g>
		<g>
			<path class="st29" d="M68.53,70.27h-3.92c-0.54,0-0.98,0.44-0.98,0.98s0.44,0.98,0.98,0.98h3.92c0.54,0,0.98-0.44,0.98-0.98
				S69.08,70.27,68.53,70.27z"/>
		</g>
	</g>
	<g>
		<g>
			<path class="st38" d="M30.21,50.64c-2.17-3.75-6.97-5.04-10.72-2.87c-2.43,1.4-3.93,4-3.92,6.8c0.01,2.8,1.5,5.38,3.92,6.79v2.04
				c0,0.54,0.44,0.98,0.98,0.98s0.98-0.44,0.98-0.98v-2.63c0-0.38-0.22-0.72-0.56-0.88c-2.94-1.39-4.19-4.9-2.8-7.84
				c1.39-2.94,4.9-4.19,7.84-2.8s4.19,4.9,2.8,7.84c-0.58,1.23-1.57,2.22-2.8,2.8c-0.34,0.16-0.56,0.51-0.56,0.88v2.63
				c0,0.54,0.44,0.98,0.98,0.98s0.98-0.44,0.98-0.98v-2.04C31.09,59.2,32.38,54.4,30.21,50.64z"/>
		</g>
	</g>
	<g>
		<g>
			<path class="st29" d="M26.36,66.34h-5.88c-0.54,0-0.98,0.44-0.98,0.98s0.44,0.98,0.98,0.98h5.88c0.54,0,0.98-0.44,0.98-0.98
				S26.9,66.34,26.36,66.34z"/>
		</g>
	</g>
	<g>
		<g>
			<path class="st29" d="M25.38,70.27h-3.92c-0.54,0-0.98,0.44-0.98,0.98s0.44,0.98,0.98,0.98h3.92c0.54,0,0.98-0.44,0.98-0.98
				S25.92,70.27,25.38,70.27z"/>
		</g>
	</g>
	<g>
		<g>
			<path class="st29" d="M51.9,96.55c-0.29-0.27-0.64-0.48-1.02-0.61v-1.94c4.99-3.25,6.41-9.93,3.16-14.93
				c-3.25-4.99-9.93-6.41-14.93-3.16c-3.06,1.99-4.91,5.4-4.9,9.05c0.01,3.64,1.85,7.04,4.9,9.03v1.94
				c-1.52,0.53-2.33,2.19-1.8,3.71c0.13,0.38,0.34,0.72,0.6,1.01c-1.09,1.2-1,3.06,0.21,4.14c0.54,0.49,1.24,0.76,1.97,0.76h9.81
				c1.62,0.01,2.94-1.3,2.94-2.92c0-0.73-0.27-1.44-0.76-1.99C53.17,99.48,53.09,97.64,51.9,96.55z M37.35,80.56
				c2.44-4.22,7.84-5.67,12.06-3.23c2.73,1.58,4.42,4.5,4.41,7.65c-0.01,3.15-1.69,6.06-4.41,7.64c-0.3,0.18-0.49,0.5-0.49,0.85v2.3
				h-2.94v-6.02c2.1-0.54,3.36-2.68,2.82-4.78c-0.54-2.1-2.68-3.36-4.78-2.82s-3.36,2.68-2.82,4.78c0.36,1.38,1.44,2.46,2.82,2.82
				v6.02h-2.94v-2.3c0-0.35-0.19-0.67-0.49-0.85C36.36,90.18,34.91,84.78,37.35,80.56z M45,87.92c-1.08,0-1.96-0.88-1.96-1.96
				S43.91,84,45,84c1.08,0,1.96,0.88,1.96,1.96S46.08,87.92,45,87.92z M50.59,103.33c-0.18,0.18-0.43,0.29-0.69,0.29h-9.81
				c-0.26,0-0.51-0.1-0.69-0.29c-0.38-0.38-0.38-1,0-1.39c0.18-0.18,0.43-0.29,0.69-0.29h9.81c0.26,0,0.51,0.1,0.69,0.29
				C50.98,102.32,50.98,102.94,50.59,103.33z M50.59,99.4c-0.18,0.18-0.43,0.29-0.69,0.29h-9.81c-0.26,0-0.51-0.1-0.69-0.29
				c-0.38-0.38-0.38-1,0-1.39c0.18-0.18,0.43-0.29,0.69-0.29h9.81c0.26,0,0.51,0.1,0.69,0.29C50.98,98.4,50.98,99.02,50.59,99.4z"/>
		</g>
	</g>
	<g>
		<g>
			<path class="st29" d="M45,68.31c-0.54,0-0.98,0.44-0.98,0.98v1.96c0,0.54,0.44,0.98,0.98,0.98s0.98-0.44,0.98-0.98v-1.96
				C45.98,68.75,45.54,68.31,45,68.31z"/>
		</g>
	</g>
	<g>
		<g>
			<path class="st29" d="M35.29,74.86l-1.39-1.39c-0.38-0.38-1-0.38-1.39,0c-0.38,0.38-0.38,1,0,1.39l1.39,1.39
				c0.4,0.37,1.02,0.34,1.39-0.06C35.63,75.82,35.63,75.24,35.29,74.86z"/>
		</g>
	</g>
	<g>
		<g>
			<path class="st29" d="M30.28,84.98h-1.96c-0.54,0-0.98,0.44-0.98,0.98s0.44,0.98,0.98,0.98h1.96c0.54,0,0.98-0.44,0.98-0.98
				S30.83,84.98,30.28,84.98z"/>
		</g>
	</g>
	<g>
		<g>
			<path class="st29" d="M35.23,95.67c-0.38-0.35-0.95-0.35-1.33,0l-1.39,1.39c-0.38,0.38-0.38,1,0,1.39
				c0.18,0.18,0.43,0.29,0.69,0.29v0c0.26,0,0.51-0.1,0.69-0.29l1.39-1.39C35.65,96.66,35.63,96.04,35.23,95.67z"/>
		</g>
	</g>
	<g>
		<g>
			<path class="st29" d="M57.48,97.06l-1.39-1.39c-0.4-0.37-1.02-0.34-1.39,0.06c-0.35,0.38-0.35,0.95,0,1.33l1.39,1.39
				c0.39,0.38,1.01,0.37,1.39-0.02C57.85,98.04,57.85,97.44,57.48,97.06z"/>
		</g>
	</g>
	<g>
		<g>
			<path class="st29" d="M61.67,84.98h-1.96c-0.54,0-0.98,0.44-0.98,0.98s0.44,0.98,0.98,0.98h1.96c0.54,0,0.98-0.44,0.98-0.98
				S62.21,84.98,61.67,84.98z"/>
		</g>
	</g>
	<g>
		<g>
			<path class="st29" d="M57.45,73.48c-0.38-0.37-0.98-0.37-1.36,0v0l-1.39,1.39c-0.4,0.37-0.42,0.99-0.06,1.39s0.99,0.42,1.39,0.06
				c0.02-0.02,0.04-0.04,0.06-0.06l1.39-1.39C57.86,74.47,57.84,73.85,57.45,73.48z"/>
		</g>
	</g>
	<g>
		<g>
			<path class="st29" d="M31.27,81.06H30.7c-2.77,0-5.2-1.86-5.92-4.53l2.32,0.58c0.52,0.14,1.06-0.18,1.19-0.7
				c0.14-0.52-0.18-1.06-0.7-1.19c0,0-0.01,0-0.01,0l-3.92-0.98c-0.01,0-0.03,0-0.04,0c-0.08-0.01-0.16-0.01-0.23-0.01
				c-0.05,0-0.11,0-0.16,0.01c-0.01,0-0.03,0-0.04,0c-0.06,0.02-0.12,0.05-0.18,0.08c-0.04,0.01-0.09,0.03-0.13,0.05l-2.94,1.96
				c-0.45,0.3-0.57,0.91-0.27,1.36s0.91,0.57,1.36,0.27l1.78-1.19l0.03,0.12c0.9,3.61,4.14,6.14,7.86,6.14h0.57
				c0.54,0,0.98-0.44,0.98-0.98S31.81,81.06,31.27,81.06z"/>
		</g>
	</g>
	<g>
		<g>
			<path class="st29" d="M70.06,76.32l-2.94-1.96c-0.04-0.02-0.09-0.04-0.13-0.05c-0.05-0.03-0.11-0.06-0.17-0.08
				c-0.01,0-0.03,0-0.04,0c-0.06-0.01-0.11-0.01-0.17-0.01c-0.08-0.01-0.15,0-0.23,0.01c-0.01,0-0.03,0-0.04,0l-3.92,0.98
				c-0.52,0.14-0.84,0.67-0.7,1.19c0.13,0.52,0.66,0.83,1.18,0.71l2.32-0.58c-0.36,1.32-1.14,2.48-2.24,3.31
				c-1.06,0.79-2.36,1.22-3.69,1.23h-0.57c-0.54,0-0.98,0.44-0.98,0.98s0.44,0.98,0.98,0.98h0.57c3.72,0,6.96-2.53,7.87-6.14
				l0.03-0.12l1.78,1.19c0.45,0.3,1.06,0.18,1.36-0.27S70.51,76.62,70.06,76.32z"/>
		</g>
	</g>
	<g>
		<g>
			<path class="st29" d="M46.96,60.46h-3.92c-0.54,0-0.98,0.44-0.98,0.98s0.44,0.98,0.98,0.98h3.92c0.54,0,0.98-0.44,0.98-0.98
				S47.5,60.46,46.96,60.46z"/>
		</g>
	</g>
	<g>
		<g>
			<path class="st29" d="M45.98,64.38h-1.96c-0.54,0-0.98,0.44-0.98,0.98s0.44,0.98,0.98,0.98h1.96c0.54,0,0.98-0.44,0.98-0.98
				S46.52,64.38,45.98,64.38z"/>
		</g>
	</g>
	<g>
		<g>
			<path class="st38" d="M49.68,50.07c-1.95-2.59-5.64-3.11-8.23-1.16c-1.48,1.11-2.34,2.85-2.34,4.7c0,1.85,0.87,3.58,2.35,4.69
				c0.43,0.33,1.05,0.24,1.37-0.2c0.32-0.43,0.24-1.05-0.2-1.37c-0.99-0.73-1.57-1.89-1.57-3.12c0-2.17,1.76-3.92,3.92-3.92
				c2.17,0,3.92,1.76,3.92,3.92c0,1.23-0.58,2.39-1.57,3.12c-0.42,0.34-0.48,0.96-0.14,1.38c0.32,0.4,0.9,0.48,1.32,0.19
				C51.12,56.35,51.64,52.66,49.68,50.07z"/>
		</g>
	</g>
</g>
</svg>
